<svg width="22" height="22" viewBox="0 0 22 22" fill="none" xmlns="http://www.w3.org/2000/svg">
<path d="M15.2118 11.537L11 15.4991L6.78822 11.537H8.84781H9.09781V11.287V6.64674H12.9022L12.9022 11.287L12.9022 11.537H13.1522H15.2118ZM0.25 11C0.25 5.06295 5.06295 0.25 11 0.25C16.937 0.25 21.75 5.06295 21.75 11C21.75 16.937 16.937 21.75 11 21.75C5.06295 21.75 0.25 16.937 0.25 11ZM2.14131 11C2.14131 15.892 6.10679 19.8587 11 19.8587C15.8932 19.8587 19.8587 15.892 19.8587 11C19.8587 6.10804 15.8932 2.14131 11 2.14131C6.10679 2.14131 2.14131 6.10805 2.14131 11Z" fill="#0560A6" stroke="#DDE7EE" stroke-width="0.5"/>
</svg>
