<svg width="21" height="15" viewBox="0 0 21 15" fill="none" xmlns="http://www.w3.org/2000/svg">
<path d="M20.0459 7.23326C19.4326 6.16951 16.0592 0.831588 10.3284 1.00409C5.02881 1.13825 1.96214 5.79576 1.12839 7.23326C1.04428 7.37894 1 7.5442 1 7.71242C1 7.88064 1.04428 8.0459 1.12839 8.19159C1.73214 9.23617 4.96173 14.4208 10.6063 14.4208H10.8459C16.1455 14.2866 19.2217 9.62909 20.0459 8.19159C20.13 8.0459 20.1743 7.88064 20.1743 7.71242C20.1743 7.5442 20.13 7.37894 20.0459 7.23326V7.23326ZM10.798 12.5041C6.66756 12.5999 3.97464 9.06367 3.13131 7.71242C4.08964 6.16951 6.59089 3.01659 10.4242 2.92076C14.5355 2.81534 17.238 6.36117 18.0909 7.71242C17.1038 9.25534 14.6313 12.4083 10.798 12.5041V12.5041Z" fill="#0560A6" stroke="#DDE7EE" stroke-width="0.4"/>
<path d="M10.5871 4.35828C9.92375 4.35828 9.27525 4.55499 8.72366 4.92356C8.17207 5.29212 7.74216 5.81597 7.48829 6.42886C7.23442 7.04175 7.168 7.71616 7.29742 8.36681C7.42684 9.01745 7.7463 9.61511 8.21539 10.0842C8.68447 10.5533 9.28213 10.8727 9.93277 11.0022C10.5834 11.1316 11.2578 11.0652 11.8707 10.8113C12.4836 10.5574 13.0075 10.1275 13.376 9.57592C13.7446 9.02433 13.9413 8.37583 13.9413 7.71244C13.9413 6.82286 13.5879 5.96972 12.9589 5.34069C12.3299 4.71166 11.4767 4.35828 10.5871 4.35828V4.35828ZM10.5871 9.14994C10.3028 9.14994 10.0249 9.06564 9.78851 8.90768C9.55211 8.74973 9.36786 8.52522 9.25906 8.26255C9.15026 7.99988 9.12179 7.71085 9.17726 7.432C9.23273 7.15315 9.36964 6.89702 9.57067 6.69598C9.77171 6.49494 10.0278 6.35803 10.3067 6.30256C10.5855 6.2471 10.8746 6.27557 11.1372 6.38437C11.3999 6.49317 11.6244 6.67742 11.7824 6.91381C11.9403 7.15021 12.0246 7.42813 12.0246 7.71244C12.0246 8.09369 11.8732 8.45933 11.6036 8.72891C11.334 8.99849 10.9684 9.14994 10.5871 9.14994Z" fill="#0560A6" stroke="#DDE7EE" stroke-width="0.4"/>
</svg>
