<svg width="90" height="90" viewBox="0 0 90 90" fill="none" xmlns="http://www.w3.org/2000/svg">
<g clip-path="url(#clip0)">
<rect x="8" y="26.5156" width="62" height="24" fill="white"/>
<path d="M83.6796 31.8226H81.2147V58.9157C81.2147 63.134 78.7586 66.9485 73.8347 66.9485H25.5941V68.2365C25.5941 71.966 29.8359 75.7307 34.1919 75.7307H71.0742L85.1843 84.0269L83.138 75.7307H83.6796C88.0326 75.7307 89.9969 71.9748 89.9969 68.2365V38.2541C89.9969 34.5246 88.0326 31.8226 83.6796 31.8226Z" fill="#3678C4"/>
<path d="M66.6335 13H10.603C5.6733 13 0 17.3794 0 21.6007V55.5586C0 59.4461 4.80679 62.2535 9.41745 62.6868L6.41686 74.0773L25.644 62.7658H66.6335C71.5632 62.7658 76.1124 59.7769 76.1124 55.5586V28.0849V21.6007C76.1124 17.3794 71.5603 13 66.6335 13ZM19.1511 41.6651C16.3554 41.6651 14.0896 39.3993 14.0896 36.6036C14.0896 33.808 16.3554 31.5422 19.1511 31.5422C21.9438 31.5422 24.2125 33.808 24.2125 36.6036C24.2125 39.3993 21.9438 41.6651 19.1511 41.6651ZM38.0562 41.6651C35.2605 41.6651 32.9947 39.3993 32.9947 36.6036C32.9947 33.808 35.2605 31.5422 38.0562 31.5422C40.8519 31.5422 43.1177 33.808 43.1177 36.6036C43.1177 39.3993 40.8519 41.6651 38.0562 41.6651ZM56.9643 41.6651C54.1686 41.6651 51.8999 39.3993 51.8999 36.6036C51.8999 33.808 54.1686 31.5422 56.9643 31.5422C59.7541 31.5422 62.0258 33.808 62.0258 36.6036C62.0258 39.3993 59.7541 41.6651 56.9643 41.6651Z" fill="#32CDEB"/>
</g>
<defs>
<clipPath id="clip0">
<rect width="89.9971" height="90" fill="white"/>
</clipPath>
</defs>
</svg>
