<svg width="28" height="28" viewBox="0 0 28 28" fill="none" xmlns="http://www.w3.org/2000/svg">
<path d="M21 11.375H19.25C19.2493 10.679 18.9725 10.0117 18.4804 9.51961C17.9883 9.02748 17.321 8.75069 16.625 8.75V7C17.7849 7.00139 18.8969 7.46277 19.7171 8.28294C20.5372 9.10311 20.9986 10.2151 21 11.375Z" fill="#C4C4C4"/>
<path d="M24.5 11.375H22.75C22.7481 9.75112 22.1022 8.19428 20.954 7.04602C19.8057 5.89776 18.2489 5.25185 16.625 5.25V3.5C18.7129 3.50232 20.7146 4.33274 22.1909 5.80909C23.6673 7.28544 24.4977 9.28713 24.5 11.375Z" fill="#C4C4C4"/>
<path d="M17.7914 18.7968L19.7514 16.8368C20.0138 16.5743 20.3473 16.3947 20.7108 16.32C21.0743 16.2454 21.4517 16.279 21.7963 16.4168L24.1833 17.3723C24.5351 17.513 24.8367 17.756 25.0491 18.0698C25.2615 18.3836 25.375 18.7538 25.375 19.1328V23.4736C25.3756 23.7316 25.3236 23.9871 25.2221 24.2242C25.1205 24.4614 24.9717 24.6754 24.7846 24.8531C24.5975 25.0307 24.3761 25.1684 24.134 25.2575C23.8919 25.3466 23.6341 25.3854 23.3765 25.3715C6.64477 24.3303 3.26552 10.1588 2.63814 4.73201C2.60776 4.4667 2.63388 4.19797 2.7148 3.94349C2.79572 3.68901 2.92961 3.45454 3.10764 3.25551C3.28568 3.05648 3.50383 2.8974 3.74776 2.78873C3.99168 2.68006 4.25585 2.62426 4.52289 2.62501H8.78677C9.1657 2.625 9.53595 2.73852 9.84975 2.95094C10.1635 3.16337 10.4065 3.46494 10.5473 3.81676L11.5019 6.20376C11.6397 6.54831 11.6733 6.92571 11.5986 7.2892C11.524 7.65268 11.3443 7.98627 11.0819 8.24863L9.12189 10.2086C9.12189 10.2086 10.2086 17.8491 17.7914 18.7968Z" fill="#C4C4C4"/>
</svg>
